<svg width="300" height="300" viewBox="0 0 300 300" fill="none" xmlns="http://www.w3.org/2000/svg">
<rect width="300" height="300" fill="white"/>
<path d="M96.0801 89.1651C101.584 94.9367 107.83 100.356 114.682 105.271C129.358 115.798 146.217 123.593 163.334 127.766C180.451 131.938 197.135 132.321 211.48 128.868C214.824 128.064 218.007 127.055 221.017 125.859C215.638 156.619 188.8 180 156.5 180C120.325 180 91 150.675 91 114.5C91 105.518 92.8083 96.9585 96.0801 89.1651ZM156.5 49C192.675 49 222 78.3254 222 114.5C222 115.636 221.971 116.766 221.914 117.888C217.596 120.171 212.781 121.969 207.544 123.23C194.332 126.409 178.966 126.057 163.202 122.214C147.438 118.371 131.911 111.192 118.395 101.496C110.962 96.1649 104.305 90.1888 98.627 83.7969C109.632 63.0956 131.42 49 156.5 49Z" fill="#60DC8D"/>
<path d="M96.0801 89.1651C101.584 94.9367 107.83 100.356 114.682 105.271C129.358 115.798 146.217 123.593 163.334 127.766C180.451 131.938 197.135 132.321 211.48 128.868C214.824 128.064 218.007 127.055 221.017 125.859C215.638 156.619 188.8 180 156.5 180C120.325 180 91 150.675 91 114.5C91 105.518 92.8083 96.9585 96.0801 89.1651ZM156.5 49C192.675 49 222 78.3254 222 114.5C222 115.636 221.971 116.766 221.914 117.888C217.596 120.171 212.781 121.969 207.544 123.23C194.332 126.409 178.966 126.057 163.202 122.214C147.438 118.371 131.911 111.192 118.395 101.496C110.962 96.1649 104.305 90.1888 98.627 83.7969C109.632 63.0956 131.42 49 156.5 49Z" fill="#7ACEBC"/>
<path d="M96.0732 89C105.511 98.9064 117.282 107.911 130.936 115.167C162.864 132.134 196.952 135.22 221.014 125.698C215.627 156.449 188.794 179.819 156.5 179.819C120.325 179.819 91 150.494 91 114.319C91 105.343 92.8056 96.7892 96.0732 89Z" fill="#225E56"/>
<ellipse cx="187.5" cy="79" rx="10.5" ry="14" fill="#FEFFFF"/>
<path d="M137.278 21.2614C130.521 37.2651 130.398 55.2976 136.937 71.3918C143.475 87.4859 155.138 99.3455 171.141 106.102C187.145 112.859 207.527 115.641 223.621 109.102C239.716 102.564 251.205 88.2186 257.962 72.2148L250.462 65.2055C248.428 76.2867 247 79.5 237.5 88.5C222.5 104.5 190.524 97.0004 178.536 91.939C166.548 86.8776 157.062 77.2613 152.164 65.2055C145.077 47.7614 148.962 36.2614 152.164 24.7614L137.278 21.2614Z" fill="white"/>
<path d="M249.812 98.6881C246.026 115.872 229.222 134.207 202.954 149.814C176.687 165.42 143.015 177.077 109.06 182.317L109.88 177.135C141.152 172.309 172.163 161.574 196.354 147.2C220.546 132.827 240.316 116.997 243.804 101.171L249.812 98.6881Z" fill="#FEFFFF"/>
<path d="M70.8555 129.085C77.6276 141.091 88.0149 150.655 100.539 156.415C113.062 162.174 127.084 163.836 140.607 161.163C154.13 158.49 166.465 151.619 175.856 141.528C185.246 131.437 191.214 118.641 192.909 104.961L170.158 102.142C169.056 111.034 165.177 119.351 159.073 125.911C152.969 132.47 144.952 136.936 136.162 138.673C127.372 140.411 118.258 139.331 110.117 135.587C101.977 131.843 95.2251 125.627 90.8233 117.822L70.8555 129.085Z" fill="#FEFFFF"/>
<path d="M141.366 137.313C155.747 133.025 171.165 133.805 185.039 139.523C198.914 145.241 210.405 155.55 217.589 168.726L197.462 179.7C192.792 171.136 185.323 164.436 176.304 160.719C167.286 157.002 157.264 156.495 147.917 159.282L141.366 137.313Z" fill="#FEFFFF"/>
<path d="M109.763 80.0776L108.196 83.3549L110.829 85.858L107.228 85.3805L105.661 88.6579L105.002 85.0854L101.401 84.6079L104.595 82.8774L103.936 79.305L106.569 81.808L109.763 80.0776Z" fill="#FEFFFF"/>
<path d="M116.89 86.9481L115.323 90.2255L117.956 92.7285L114.355 92.251L112.788 95.5284L112.129 91.9559L108.528 91.4784L111.722 89.748L111.063 86.1755L113.696 88.6785L116.89 86.9481Z" fill="#FEFFFF"/>
<path d="M132.866 98.6534L132.17 102.219L135.346 103.982L131.74 104.422L131.044 107.988L129.511 104.694L125.905 105.134L128.564 102.659L127.031 99.3654L130.207 101.129L132.866 98.6534Z" fill="#FEFFFF"/>
<path d="M118.422 93.4167L121.434 95.4474L124.296 93.2102L123.296 96.7024L126.308 98.7331L122.678 98.8607L121.677 102.353L120.434 98.9396L116.803 99.0672L119.665 96.83L118.422 93.4167Z" fill="#FEFFFF"/>
<path d="M141.318 103.074L140.966 106.69L144.296 108.142L140.749 108.925L140.397 112.54L138.556 109.408L135.009 110.191L137.419 107.473L135.578 104.341L138.908 105.793L141.318 103.074Z" fill="#FEFFFF"/>
<path d="M84.7188 225.281C81.8945 225.281 79.8555 224.578 78.6016 223.172C77.3594 221.766 76.7383 219.527 76.7383 216.457V213.434H82.8555V217.301C82.8555 218.016 82.9609 218.578 83.1719 218.988C83.3945 219.387 83.7754 219.586 84.3145 219.586C84.877 219.586 85.2637 219.422 85.4746 219.094C85.6973 218.766 85.8086 218.227 85.8086 217.477C85.8086 216.527 85.7148 215.736 85.5273 215.104C85.3398 214.459 85.0117 213.85 84.543 213.275C84.0859 212.689 83.4473 212.01 82.627 211.236L79.8496 208.6C77.7754 206.643 76.7383 204.404 76.7383 201.885C76.7383 199.248 77.3477 197.238 78.5664 195.855C79.7969 194.473 81.5723 193.781 83.8926 193.781C86.7285 193.781 88.7383 194.537 89.9219 196.049C91.1172 197.561 91.7148 199.857 91.7148 202.939H85.4219V200.812C85.4219 200.391 85.2988 200.062 85.0527 199.828C84.8184 199.594 84.4961 199.477 84.0859 199.477C83.5938 199.477 83.2305 199.617 82.9961 199.898C82.7734 200.168 82.6621 200.52 82.6621 200.953C82.6621 201.387 82.7793 201.855 83.0137 202.359C83.248 202.863 83.7109 203.443 84.4023 204.1L87.9707 207.527C88.6855 208.207 89.3418 208.928 89.9395 209.689C90.5371 210.439 91.0176 211.318 91.3809 212.326C91.7441 213.322 91.9258 214.541 91.9258 215.982C91.9258 218.889 91.3867 221.168 90.3086 222.82C89.2422 224.461 87.3789 225.281 84.7188 225.281ZM95.8 225V194.062H103.974C105.685 194.062 107.038 194.443 108.034 195.205C109.042 195.967 109.763 197.051 110.196 198.457C110.63 199.863 110.847 201.539 110.847 203.484C110.847 205.359 110.665 206.994 110.302 208.389C109.939 209.771 109.288 210.844 108.351 211.605C107.425 212.367 106.107 212.748 104.396 212.748H101.882V225H95.8ZM101.882 207.193H102.234C103.382 207.193 104.085 206.871 104.343 206.227C104.601 205.582 104.73 204.633 104.73 203.379C104.73 202.207 104.601 201.305 104.343 200.672C104.097 200.027 103.505 199.705 102.568 199.705H101.882V207.193ZM121.998 225.281C119.526 225.281 117.633 224.537 116.321 223.049C115.02 221.549 114.37 219.387 114.37 216.562V201.867C114.37 199.219 115.014 197.209 116.303 195.838C117.604 194.467 119.502 193.781 121.998 193.781C124.495 193.781 126.387 194.467 127.676 195.838C128.977 197.209 129.627 199.219 129.627 201.867V216.562C129.627 219.387 128.971 221.549 127.659 223.049C126.358 224.537 124.471 225.281 121.998 225.281ZM122.051 219.586C122.989 219.586 123.457 218.678 123.457 216.861V201.762C123.457 200.238 123 199.477 122.086 199.477C121.055 199.477 120.539 200.256 120.539 201.814V216.896C120.539 217.857 120.657 218.549 120.891 218.971C121.125 219.381 121.512 219.586 122.051 219.586ZM133.923 225V194.062H143.416C144.998 194.062 146.193 194.426 147.002 195.152C147.81 195.867 148.349 196.875 148.619 198.176C148.9 199.465 149.041 200.982 149.041 202.729C149.041 204.416 148.824 205.764 148.39 206.771C147.968 207.779 147.166 208.477 145.982 208.863C146.955 209.062 147.634 209.549 148.021 210.322C148.42 211.084 148.619 212.074 148.619 213.293V225H142.519V212.889C142.519 211.986 142.332 211.43 141.957 211.219C141.593 210.996 141.002 210.885 140.181 210.885V225H133.923ZM140.216 205.523H141.711C142.566 205.523 142.994 204.592 142.994 202.729C142.994 201.521 142.9 200.73 142.713 200.355C142.525 199.98 142.173 199.793 141.658 199.793H140.216V205.523ZM155.534 225V200.004H151.86V194.062H165.395V200.004H161.721V225H155.534ZM168.109 225V219.375L175.193 199.758H168.795V194.062H181.715V199.477L174.508 219.305H181.416V225H168.109ZM192.866 225.281C190.394 225.281 188.501 224.537 187.189 223.049C185.888 221.549 185.238 219.387 185.238 216.562V201.867C185.238 199.219 185.882 197.209 187.171 195.838C188.472 194.467 190.37 193.781 192.866 193.781C195.363 193.781 197.255 194.467 198.544 195.838C199.845 197.209 200.495 199.219 200.495 201.867V216.562C200.495 219.387 199.839 221.549 198.527 223.049C197.226 224.537 195.339 225.281 192.866 225.281ZM192.919 219.586C193.857 219.586 194.325 218.678 194.325 216.861V201.762C194.325 200.238 193.868 199.477 192.954 199.477C191.923 199.477 191.407 200.256 191.407 201.814V216.896C191.407 217.857 191.525 218.549 191.759 218.971C191.993 219.381 192.38 219.586 192.919 219.586ZM204.791 225V194.062H211.155L214.002 208.881V194.062H219.979V225H213.932L210.838 209.531V225H204.791ZM224.521 225V194.062H236.896V200.039H230.814V206.068H236.65V211.887H230.814V218.971H237.3V225H224.521Z" fill="#225E56"/>
</svg>
